# xmcd
#
# Track frame offsets:
#	150
#	22062
#	43127
#	64500
#	87747
#	109145
#	132617
#	152972
#	173810
#	193520
#	217627
#	240835
#	261685
#
# Disc length: 3741 seconds
#
# Revision: 15
# Processed by: cddbd v1.5.2PL0 Copyright (c) Steve Scherf et al.
# Submitted via: EasyCDDAExtractor 15.3.0.1
#
DISCID=bb0e9b0d
DTITLE=Mariah Carey - The Remixes - CD 2
DYEAR=2003
DGENRE=R&B/Pop
TTITLE0=Fantasy (Featuring O.D.B.)
TTITLE1=Always Be My Baby (Mr. Dupri Mix Featuring Da Brat and Xscape)
TTITLE2=My All, Stay Awhile (So So Def Remix Featuring Lord Tariq and Peter Gunz
TTITLE2=)
TTITLE3=Thank God I Found You (Make It Last Remix Featuring Joe and Nas)
TTITLE4=Breakdown (Featuring Krayzie Bone and Wish Bone)
TTITLE5=Honey (So So Def Mix Featuring Da Brat and JD)
TTITLE6=Loverboy (Remix Featuring Da Brat, Ludacris, Twenty II and Shawnna)
TTITLE7=Heartbreaker (Remix Featuring Da Brat and Missy Elliott)
TTITLE8=Sweetheart
TTITLE9=Crybaby (Featuring Snoop Dogg)
TTITLE10=Miss You (Featuring Jadakiss)
TTITLE11=The One (So So Def Remix Featuring Bone Crusher)
TTITLE12=I Know What You Want (Busta Rhymes and Mariah Carey Featuring Flipmode 
TTITLE12=Squad)
EXTD=YEAR: 2003
EXTT0=
EXTT1=
EXTT2=
EXTT3=
EXTT4=
EXTT5=
EXTT6=
EXTT7=
EXTT8=
EXTT9=
EXTT10=
EXTT11=
EXTT12=
PLAYORDER=
